PathFileType	4	(X/Y/Z)	OpenSim_Sub10_CSBaseline_Accel.trc
DataRate	CameraRate	NumFrames	NumMarkers	Units	OrigDataRate	OrigDataStartFrame	OrigNumFrames
100	100	13	8	m	100	3417	9111
Frame#	Time	torso_imu_offset_imu	pelvis_imu_offset_imu	tibia_r_imu_offset_imu	femur_r_imu_offset_imu	tibia_l_imu_offset_imu	femur_l_imu_offset_imu	toes_r_imu_offset_imu	toes_l_imu_offset_imu
				X1	Y1	Z1	X2	Y2	Z2	X3	Y3	Z3	X4	Y4	Z4	X5	Y5	Z5	X6	Y6	Z6	X7	Y7	Z7	X8		Y8	Z8	

3417	34.16000000	9.89834716	-0.91110258	7.39180192	10.69120623	3.38802828	2.53246517	11.25748472	0.59977664	0.78729956	10.73108748	-0.45403380	-0.91765428	13.74379959	3.35800093	8.56610025	7.45522513	5.15787231	-0.15327764	4.76612081	-0.64414612	9.51652778	4.13451389	-10.62978721	13.15003160
3418	34.17000000	10.29880364	-0.81394921	7.66995367	11.19447431	2.87864978	3.10722076	11.63631343	0.02399179	1.07603170	10.91234126	-0.64616710	-0.61448032	14.01383692	4.15748650	7.70271068	9.47566705	6.10497748	-0.29200136	4.56410487	-0.29614628	9.55320820	8.95780723	-6.41866051	15.62202694
3419	34.18000000	10.54869926	-0.61109105	7.84818846	11.92130374	2.20588359	3.66657651	11.72679309	-0.74107463	1.20717626	10.84057071	-0.76673066	-0.36340419	14.63857675	2.68545106	6.73497963	10.61829798	7.22025025	0.00767829	4.58207990	-0.49024945	9.49563555	10.26914565	-13.26682535	13.07673755
3420	34.19000000	10.77459309	-0.36007552	7.94245253	12.51046833	1.19560849	3.95797468	11.71254592	-1.38548135	1.08709044	10.87576942	-0.78730214	-0.33168953	12.74960398	-1.28361609	5.42766761	13.09156019	7.96617886	0.59826429	4.60333866	-0.46745041	9.44689234	11.83767151	-10.97496445	15.32886806
3421	34.20000000	11.16922565	-0.13591811	7.92545708	12.86557550	0.27394024	3.79094668	12.03923654	-1.49378107	1.51945699	10.94786506	-0.84706698	-0.43367088	9.92940066	-4.56033202	2.52208342	14.96677287	8.57731142	1.02444545	4.57459453	-0.72224340	9.50900144	13.83346775	-0.47754893	16.02295108
3422	34.21000000	11.62295235	0.01500475	7.83807089	12.72704186	-0.40756756	3.66765868	12.41991507	-1.30949803	2.22837879	10.92560025	-0.77761724	-0.63044925	8.43471609	-5.95279016	-0.75957694	14.37373196	8.67148889	0.89861318	5.44223760	-1.67949619	9.44182962	11.46443754	9.90706239	12.82906928
3423	34.22000000	11.83846375	-0.07806132	7.63090171	12.23438391	-0.52353401	3.65133778	12.39693979	-1.12743741	2.82141280	10.90105841	-0.59081899	-0.65369575	8.66267250	-6.89122783	-2.17628126	13.52288869	8.97181706	0.35210940	4.42611378	-1.77755553	8.85354800	10.51742382	7.54924640	12.91039124
3424	34.23000000	11.70811333	-0.14005705	7.40017149	11.52554178	-0.21099522	3.89073891	12.23647377	-1.29766630	2.84899807	10.88207392	-0.33552579	-0.48374414	9.26978150	-8.81147779	-2.46758791	11.38110684	8.00387963	0.88022061	5.77853433	-0.95198021	9.50281640	16.42051377	-3.35345552	17.45309131
3425	34.24000000	11.37694919	-0.05333590	7.25966264	11.01632651	0.29907377	4.21433459	12.33636989	-1.60213817	2.82594256	10.94107113	0.05819372	-0.28441819	8.68523365	-10.62636924	-3.67418217	9.70639459	6.29050641	1.32309384	7.95778720	-1.77327113	10.52937594	12.91890202	-2.58905926	14.46829708
3426	34.25000000	11.31707753	-0.02667728	7.08583651	10.54648494	0.80251411	4.36503907	13.00489697	-1.63606295	3.33771014	10.92326334	0.41555065	0.05767468	8.38696582	-11.59729628	-4.16310819	9.91196175	5.06235181	1.31566503	4.34885808	-1.30885757	8.44279505	7.22901909	3.60447027	11.88540259
3427	34.26000000	11.33789823	0.09860684	6.94449810	10.11011151	1.29789791	4.60813571	13.62468264	-1.84453237	3.16270356	10.79584577	0.63055829	0.31719156	8.90685338	-10.53123032	-2.28820838	9.51937751	3.13669972	1.10233697	8.53403791	0.70278450	10.61104822	4.37797266	1.19962280	9.83441051
3428	34.27000000	11.13699484	0.30102508	6.73192144	9.82578943	1.66089729	4.82903394	13.59005233	-1.87837551	1.99453641	10.27285758	0.75746324	0.61156681	9.62620372	-8.95020248	-1.63706575	9.44482654	1.05132852	0.15248756	12.20796197	-2.19983532	9.98409751	8.94516306	1.74974445	11.01664648
3429	34.28000000	10.60899201	0.53060009	6.69247384	9.85461970	1.87172243	5.12511136	13.27765715	-1.65848792	0.54238949	10.01488474	0.80035292	0.94141488	10.11209046	-6.30990181	-1.71051012	8.95511865	-1.15729090	-2.50198491	15.95811985	1.80925947	12.90546257	7.50481551	0.51678549	10.40593283
